# xmcd
#
# Track frame offsets: 
#        150
#        20024
#        36475
#        58380
#        79284
#        97812
#        113768
#        129865
#        140785
#        155444
#
# Disc length: 2226 seconds
#
# Revision: 0
# Processed by: cddbd v1.5.2PL0 Copyright (c) Steve Scherf et al.
# Submitted via: ExactAudioCopy v0.99pb4
#
DISCID=8808b00a
DTITLE=Slim Lightfoot - The Devil and The Deep Blue Sea
DYEAR=2005
DGENRE=Blues
TTITLE0=A Bad Storm's A Coming
TTITLE1=What In The World did I Do ?
TTITLE2=Doing The Do
TTITLE3=Cherry Blues
TTITLE4=She's Alright
TTITLE5=Forbidden Love
TTITLE6=Devil's Got The Best Tunes
TTITLE7=Chicken Legs
TTITLE8=Drunk !
TTITLE9=The Missing Link
EXTD=
EXTT0=
EXTT1=
EXTT2=
EXTT3=
EXTT4=
EXTT5=
EXTT6=
EXTT7=
EXTT8=
EXTT9=
PLAYORDER=
